<svg width="84" height="20" viewBox="0 0 84 20" fill="none" xmlns="http://www.w3.org/2000/svg">
<path d="M0.125358 10.6342C0.204711 10.8387 0.323707 11.0254 0.475501 11.1838L8.81225 19.5103C8.96771 19.6655 9.15227 19.7887 9.35538 19.8727C9.5585 19.9568 9.77621 20 9.99606 20C10.4401 20 10.8659 19.8238 11.1799 19.5103C11.3354 19.355 11.4587 19.1707 11.5428 18.9678C11.6269 18.7649 11.6702 18.5475 11.6702 18.3279C11.6702 17.8844 11.4939 17.4591 11.1799 17.1455L5.67763 11.6667L81.5006 11.3544C81.9428 11.3544 82.3669 11.179 82.6796 10.8667C82.9923 10.5544 83.168 10.1308 83.168 9.68912C83.168 9.24745 82.9923 8.82388 82.6796 8.51158C82.3669 8.19927 81.9428 8.02382 81.5006 8.02382L5.67763 8.33613L11.1799 2.85731C11.3362 2.7025 11.4602 2.51832 11.5449 2.31539C11.6295 2.11246 11.6731 1.89479 11.6731 1.67495C11.6731 1.45511 11.6295 1.23745 11.5449 1.03452C11.4602 0.831589 11.3362 0.647406 11.1799 0.492596C11.0249 0.33651 10.8405 0.21262 10.6373 0.128075C10.4341 0.0435301 10.2162 4.4703e-06 9.99606 4.48954e-06C9.77595 4.50878e-06 9.55803 0.0435302 9.35484 0.128075C9.15166 0.212621 8.96725 0.33651 8.81225 0.492596L0.475501 8.81907C0.323707 8.97744 0.204711 9.1642 0.125358 9.36861C-0.0414056 9.77405 -0.0414056 10.2288 0.125358 10.6342Z" fill="#97999B"/>
</svg>
