<svg width="35" height="35" viewBox="0 0 35 35" fill="none" xmlns="http://www.w3.org/2000/svg">
<path d="M34.7811 16.3901C34.6422 16.0324 34.434 15.7055 34.1684 15.4284L19.579 0.857061C19.3069 0.585339 18.9839 0.369799 18.6285 0.222744C18.273 0.075689 17.892 0 17.5073 0C16.7302 0 15.985 0.308294 15.4356 0.857061C15.1635 1.12878 14.9477 1.45136 14.8005 1.80639C14.6532 2.16141 14.5775 2.54192 14.5775 2.92619C14.5775 3.70226 14.8861 4.44655 15.4356 4.99532L25.0646 14.5832H2.91788C2.14401 14.5832 1.40184 14.8903 0.854628 15.4368C0.307419 15.9833 0 16.7246 0 17.4975C0 18.2704 0.307419 19.0117 0.854628 19.5582C1.40184 20.1047 2.14401 20.4118 2.91788 20.4118H25.0646L15.4356 29.9997C15.1621 30.2706 14.945 30.5929 14.7969 30.9481C14.6487 31.3032 14.5725 31.6841 14.5725 32.0688C14.5725 32.4536 14.6487 32.8345 14.7969 33.1896C14.945 33.5447 15.1621 33.867 15.4356 34.138C15.7068 34.4111 16.0296 34.6279 16.3851 34.7759C16.7407 34.9238 17.1221 35 17.5073 35C17.8925 35 18.2739 34.9238 18.6294 34.7759C18.985 34.6279 19.3077 34.4111 19.579 34.138L34.1684 19.5666C34.434 19.2895 34.6422 18.9627 34.7811 18.6049C35.073 17.8954 35.073 17.0996 34.7811 16.3901Z" fill="#F9E547"/>
</svg>
