<svg width="18" height="16" viewBox="0 0 18 16" fill="none" xmlns="http://www.w3.org/2000/svg">
<path d="M8.76502 8.00604L10.7078 9.56025M8.76502 8.00604V15V8.00604ZM8.76502 8.00604L6.82227 9.56025L8.76502 8.00604Z" stroke="black" stroke-width="2" stroke-linecap="round" stroke-linejoin="round"/>
<path d="M3.35106 5.76581C2.61609 5.95075 1.97394 6.39772 1.54527 7.02273C1.1166 7.64774 0.930915 8.40777 1.0231 9.16003C1.11528 9.91229 1.47899 10.605 2.04589 11.108C2.61279 11.611 3.34386 11.8897 4.10174 11.8917H4.87885" stroke="black" stroke-width="2" stroke-linecap="round" stroke-linejoin="round"/>
<path d="M11.7423 4.22758C11.4767 3.17582 10.8211 2.26441 9.9084 1.6781C8.99573 1.09179 7.89427 0.874446 6.82729 1.07013C5.76031 1.26582 4.80766 1.85989 4.16245 2.73192C3.51724 3.60395 3.22775 4.68868 3.35266 5.76624C3.35266 5.76624 3.47156 6.45165 3.71479 6.8402" stroke="black" stroke-width="2" stroke-linecap="round" stroke-linejoin="round"/>
<path d="M12.6498 11.8916C13.1985 11.8912 13.7408 11.7746 14.2412 11.5495C14.7416 11.3245 15.1886 10.9959 15.5528 10.5856C15.9171 10.1753 16.1903 9.69253 16.3545 9.16902C16.5188 8.6455 16.5702 8.09315 16.5056 7.5483C16.441 7.00346 16.2617 6.47848 15.9795 6.00793C15.6974 5.53737 15.3188 5.1319 14.8686 4.81822C14.4185 4.50453 13.907 4.28973 13.3678 4.18797C12.8287 4.0862 12.2741 4.09977 11.7406 4.22778L10.707 4.5091" stroke="black" stroke-width="2" stroke-linecap="round" stroke-linejoin="round"/>
</svg>
