<svg width="13" height="16" viewBox="0 0 13 16" fill="none" xmlns="http://www.w3.org/2000/svg">
<path d="M13 5.552C12.9915 5.47851 12.9752 5.4061 12.9513 5.336V5.264C12.9122 5.18174 12.8601 5.10613 12.7969 5.04L7.92188 0.24C7.85471 0.177773 7.77792 0.126465 7.69438 0.0879999H7.62125C7.53871 0.041393 7.44756 0.0114754 7.35313 0H2.4375C1.79103 0 1.17105 0.252856 0.713927 0.702944C0.256807 1.15303 0 1.76348 0 2.4V13.6C0 14.2365 0.256807 14.847 0.713927 15.2971C1.17105 15.7471 1.79103 16 2.4375 16H10.5625C11.209 16 11.829 15.7471 12.2861 15.2971C12.7432 14.847 13 14.2365 13 13.6V5.6V5.552ZM8.125 2.728L10.2294 4.8H8.9375C8.72201 4.8 8.51535 4.71571 8.36298 4.56569C8.2106 4.41566 8.125 4.21217 8.125 4V2.728ZM11.375 13.6C11.375 13.8122 11.2894 14.0157 11.137 14.1657C10.9847 14.3157 10.778 14.4 10.5625 14.4H2.4375C2.22201 14.4 2.01535 14.3157 1.86298 14.1657C1.7106 14.0157 1.625 13.8122 1.625 13.6V2.4C1.625 2.18783 1.7106 1.98434 1.86298 1.83431C2.01535 1.68429 2.22201 1.6 2.4375 1.6H6.5V4C6.5 4.63652 6.75681 5.24697 7.21393 5.69706C7.67105 6.14714 8.29103 6.4 8.9375 6.4H11.375V13.6Z" fill="black"/>
</svg>
