<svg width="18" height="16" viewBox="0 0 18 16" fill="none" xmlns="http://www.w3.org/2000/svg">
<path d="M16.359 1.69499C15.4047 0.736312 14.1397 0.151192 12.7926 0.0453197C11.4454 -0.0605521 10.1049 0.319805 9.01309 1.11769C7.86769 0.264034 6.44203 -0.123053 5.0232 0.0343756C3.60438 0.191804 2.29778 0.882054 1.36652 1.96612C0.435261 3.0502 -0.0514782 4.44756 0.00431696 5.87683C0.0601121 7.3061 0.654297 8.6611 1.66722 9.66897L7.25764 15.2796C7.72578 15.7413 8.35627 16 9.01309 16C9.66991 16 10.3004 15.7413 10.7685 15.2796L16.359 9.66897C17.41 8.60932 18 7.17599 18 5.68198C18 4.18796 17.41 2.75464 16.359 1.69499ZM15.0896 8.42416L9.49921 14.0258C9.43559 14.0902 9.35988 14.1413 9.27644 14.1761C9.193 14.211 9.10349 14.2289 9.01309 14.2289C8.92268 14.2289 8.83317 14.211 8.74973 14.1761C8.66629 14.1413 8.59058 14.0902 8.52696 14.0258L2.93654 8.3971C2.23054 7.67398 1.83521 6.7026 1.83521 5.691C1.83521 4.6794 2.23054 3.70802 2.93654 2.9849C3.65596 2.27318 4.62625 1.8741 5.63723 1.8741C6.64821 1.8741 7.61849 2.27318 8.33792 2.9849C8.4216 3.06944 8.52117 3.13655 8.63087 3.18234C8.74057 3.22814 8.85824 3.25172 8.97708 3.25172C9.09592 3.25172 9.21358 3.22814 9.32329 3.18234C9.43299 3.13655 9.53255 3.06944 9.61624 2.9849C10.3357 2.27318 11.3059 1.8741 12.3169 1.8741C13.3279 1.8741 14.2982 2.27318 15.0176 2.9849C15.7333 3.69854 16.1416 4.66466 16.1551 5.67628C16.1686 6.68791 15.7861 7.66459 15.0896 8.3971V8.42416Z" fill="#97999B"/>
</svg>
