<svg width="25" height="22" viewBox="0 0 25 22" fill="none" xmlns="http://www.w3.org/2000/svg">
<path d="M22.7208 2.33061C21.3954 1.01243 19.6385 0.207888 17.7674 0.0623146C15.8964 -0.0832592 14.0345 0.439732 12.5182 1.53682C10.9273 0.363046 8.94726 -0.169198 6.97667 0.0472665C5.00608 0.263731 3.19135 1.21282 1.89794 2.70342C0.60453 4.19402 -0.0714974 6.1154 0.00599578 8.08064C0.083489 10.0459 0.908746 11.909 2.31558 13.2948L10.0801 21.0095C10.7302 21.6442 11.6059 22 12.5182 22C13.4304 22 14.3061 21.6442 14.9563 21.0095L22.7208 13.2948C24.1806 11.8378 25 9.86699 25 7.81272C25 5.75845 24.1806 3.78763 22.7208 2.33061ZM20.9578 11.5832L13.1933 19.2855C13.105 19.374 12.9998 19.4442 12.8839 19.4922C12.7681 19.5401 12.6437 19.5648 12.5182 19.5648C12.3926 19.5648 12.2683 19.5401 12.1524 19.4922C12.0365 19.4442 11.9314 19.374 11.843 19.2855L4.07853 11.546C3.09798 10.5517 2.5489 9.21607 2.5489 7.82512C2.5489 6.43417 3.09798 5.09852 4.07853 4.10423C5.07773 3.12562 6.42534 2.57689 7.82948 2.57689C9.23362 2.57689 10.5812 3.12562 11.5804 4.10423C11.6967 4.22048 11.835 4.31275 11.9873 4.37572C12.1397 4.43869 12.3031 4.47111 12.4682 4.47111C12.6332 4.47111 12.7966 4.43869 12.949 4.37572C13.1014 4.31275 13.2397 4.22048 13.3559 4.10423C14.3551 3.12562 15.7027 2.57689 17.1068 2.57689C18.511 2.57689 19.8586 3.12562 20.8578 4.10423C21.8518 5.08549 22.4189 6.4139 22.4376 7.80489C22.4563 9.19588 21.9251 10.5388 20.9578 11.546V11.5832Z" fill="#97999B"/>
</svg>
