<svg width="18" height="14" viewBox="0 0 18 14" fill="none" xmlns="http://www.w3.org/2000/svg">
<path d="M15.3 0H2.7C1.98392 0 1.29716 0.276562 0.790812 0.768845C0.284464 1.26113 0 1.92881 0 2.625V11.375C0 12.0712 0.284464 12.7389 0.790812 13.2312C1.29716 13.7234 1.98392 14 2.7 14H15.3C16.0161 14 16.7028 13.7234 17.2092 13.2312C17.7155 12.7389 18 12.0712 18 11.375V2.625C18 1.92881 17.7155 1.26113 17.2092 0.768845C16.7028 0.276562 16.0161 0 15.3 0ZM2.7 1.75H15.3C15.5387 1.75 15.7676 1.84219 15.9364 2.00628C16.1052 2.17038 16.2 2.39294 16.2 2.625L9 6.895L1.8 2.625C1.8 2.39294 1.89482 2.17038 2.0636 2.00628C2.23239 1.84219 2.46131 1.75 2.7 1.75ZM16.2 11.375C16.2 11.6071 16.1052 11.8296 15.9364 11.9937C15.7676 12.1578 15.5387 12.25 15.3 12.25H2.7C2.46131 12.25 2.23239 12.1578 2.0636 11.9937C1.89482 11.8296 1.8 11.6071 1.8 11.375V4.62L8.532 8.61875C8.66882 8.69555 8.82402 8.73598 8.982 8.73598C9.13998 8.73598 9.29518 8.69555 9.432 8.61875L16.2 4.62V11.375Z" fill="#97999B"/>
</svg>
