<svg width="75" height="75" viewBox="0 0 75 75" fill="none" xmlns="http://www.w3.org/2000/svg">
<path d="M26.25 26.25C25.5083 26.25 24.7833 26.4699 24.1666 26.882C23.5499 27.294 23.0693 27.8797 22.7855 28.5649C22.5016 29.2502 22.4274 30.0042 22.5721 30.7316C22.7168 31.459 23.0739 32.1272 23.5984 32.6516C24.1228 33.1761 24.791 33.5332 25.5184 33.6779C26.2459 33.8226 26.9999 33.7484 27.6851 33.4645C28.3703 33.1807 28.956 32.7001 29.368 32.0834C29.7801 31.4667 30 30.7417 30 30C30 29.0054 29.6049 28.0516 28.9017 27.3483C28.1984 26.6451 27.2446 26.25 26.25 26.25ZM48.75 41.25C45.4074 41.2499 42.1255 42.1433 39.2442 43.8378C36.3629 45.5323 33.987 47.9662 32.3625 50.8875C31.8736 51.7486 31.7451 52.768 32.0051 53.7235C32.265 54.6789 32.8923 55.4928 33.75 55.9875C34.3105 56.3051 34.9433 56.473 35.5875 56.475C36.252 56.4738 36.9042 56.2962 37.4775 55.9601C38.0508 55.6241 38.5244 55.1417 38.85 54.5625C39.8263 52.7941 41.2608 51.3211 43.0028 50.2984C44.7448 49.2756 46.73 48.7408 48.75 48.75C49.7446 48.75 50.6984 48.3549 51.4017 47.6516C52.1049 46.9484 52.5 45.9945 52.5 45C52.5 44.0054 52.1049 43.0516 51.4017 42.3483C50.6984 41.6451 49.7446 41.25 48.75 41.25ZM48.75 26.25C48.0083 26.25 47.2833 26.4699 46.6666 26.882C46.0499 27.294 45.5693 27.8797 45.2855 28.5649C45.0016 29.2502 44.9274 30.0042 45.0721 30.7316C45.2168 31.459 45.5739 32.1272 46.0984 32.6516C46.6228 33.1761 47.291 33.5332 48.0184 33.6779C48.7458 33.8226 49.4999 33.7484 50.1851 33.4645C50.8703 33.1807 51.456 32.7001 51.868 32.0834C52.2801 31.4667 52.5 30.7417 52.5 30C52.5 29.0054 52.1049 28.0516 51.4017 27.3483C50.6984 26.6451 49.7446 26.25 48.75 26.25ZM37.5 0C30.0832 0 22.833 2.19934 16.6661 6.31989C10.4993 10.4404 5.69282 16.2971 2.85453 23.1494C0.0162481 30.0016 -0.726377 37.5416 0.720569 44.8159C2.16751 52.0902 5.73904 58.772 10.9835 64.0165C16.228 69.261 22.9098 72.8325 30.1841 74.2794C37.4584 75.7264 44.9984 74.9837 51.8506 72.1455C58.7029 69.3072 64.5596 64.5007 68.6801 58.3339C72.8007 52.167 75 44.9168 75 37.5C75 32.5754 74.03 27.6991 72.1455 23.1494C70.2609 18.5997 67.4987 14.4657 64.0165 10.9835C60.5343 7.5013 56.4003 4.73907 51.8506 2.85452C47.3009 0.969966 42.4246 0 37.5 0ZM37.5 67.5C31.5666 67.5 25.7664 65.7405 20.8329 62.4441C15.8994 59.1476 12.0543 54.4623 9.78363 48.9805C7.513 43.4987 6.9189 37.4667 8.07646 31.6473C9.23401 25.8279 12.0912 20.4824 16.2868 16.2868C20.4824 12.0912 25.8279 9.234 31.6473 8.07644C37.4667 6.91888 43.4987 7.51298 48.9805 9.78361C54.4623 12.0542 59.1476 15.8994 62.4441 20.8329C65.7405 25.7664 67.5 31.5666 67.5 37.5C67.5 45.4565 64.3393 53.0871 58.7132 58.7132C53.0871 64.3393 45.4565 67.5 37.5 67.5Z" fill="#97999B"/>
</svg>
