<svg width="14" height="12" viewBox="0 0 14 12" fill="none" xmlns="http://www.w3.org/2000/svg">
<path d="M13.1208 4.53926C13.0794 4.42449 13.004 4.32367 12.9038 4.24905C12.8036 4.17443 12.683 4.1292 12.5564 4.11885L8.82238 3.59804L7.14894 0.353968C7.0952 0.247879 7.0113 0.158409 6.90684 0.0958058C6.80238 0.0332031 6.6816 0 6.55832 0C6.43503 0 6.31425 0.0332031 6.20979 0.0958058C6.10533 0.158409 6.02143 0.247879 5.96769 0.353968L4.29425 3.59176L0.560194 4.11885C0.438737 4.13535 0.324551 4.18408 0.230593 4.2595C0.136635 4.33492 0.0666682 4.43402 0.028632 4.54553C-0.00618532 4.65451 -0.00930976 4.7705 0.019594 4.88104C0.0484977 4.99159 0.108339 5.09252 0.192694 5.17301L2.90301 7.68293L2.24676 11.247C2.22333 11.3647 2.23559 11.4863 2.28211 11.5974C2.32862 11.7086 2.40744 11.8048 2.50926 11.8745C2.60849 11.9423 2.72554 11.9824 2.84726 11.9901C2.96897 11.9979 3.09054 11.9731 3.19832 11.9184L6.55832 10.2431L9.90519 11.9247C9.99729 11.9744 10.1013 12.0003 10.2071 12C10.3461 12.0005 10.4817 11.9587 10.5943 11.8808C10.6961 11.811 10.7749 11.7149 10.8214 11.6037C10.8679 11.4925 10.8802 11.3709 10.8568 11.2533L10.2005 7.68921L12.9108 5.17929C13.0056 5.10254 13.0756 5.00165 13.1128 4.88836C13.1499 4.77506 13.1527 4.65401 13.1208 4.53926ZM9.08488 7.04918C9.00791 7.12036 8.95034 7.20846 8.91716 7.3058C8.88399 7.40314 8.87623 7.50677 8.89456 7.60764L9.36706 10.2368L6.89957 8.98182C6.80462 8.93348 6.6987 8.90819 6.59113 8.90819C6.48356 8.90819 6.37764 8.93348 6.28269 8.98182L3.81519 10.2368L4.28769 7.60764C4.30603 7.50677 4.29827 7.40314 4.26509 7.3058C4.23192 7.20846 4.17434 7.12036 4.09738 7.04918L2.12863 5.16674L4.89144 4.78398C4.99775 4.76984 5.09882 4.73098 5.18577 4.67081C5.27272 4.61064 5.34291 4.531 5.39019 4.43886L6.55832 2.04816L7.79207 4.44514C7.83934 4.53728 7.90953 4.61692 7.99649 4.67709C8.08344 4.73726 8.1845 4.77611 8.29082 4.79025L11.0536 5.17301L9.08488 7.04918Z" fill="#108815"/>
</svg>
