<svg width="14" height="12" viewBox="0 0 14 12" fill="none" xmlns="http://www.w3.org/2000/svg">
<path d="M13.9132 4.53926C13.8695 4.42449 13.7899 4.32367 13.6842 4.24905C13.5784 4.17443 13.451 4.1292 13.3175 4.11885L9.37599 3.59804L7.60958 0.353968C7.55286 0.247879 7.46429 0.158409 7.35403 0.0958058C7.24377 0.0332031 7.11627 0 6.98614 0C6.85601 0 6.72851 0.0332031 6.61825 0.0958058C6.50799 0.158409 6.41943 0.247879 6.36271 0.353968L4.5963 3.59176L0.654793 4.11885C0.526588 4.13535 0.406058 4.18408 0.30688 4.2595C0.207703 4.33492 0.133849 4.43402 0.0936993 4.54553C0.0569476 4.65451 0.0536496 4.7705 0.0841591 4.88104C0.114669 4.99159 0.177834 5.09252 0.266876 5.17301L3.12776 7.68293L2.43505 11.247C2.41032 11.3647 2.42327 11.4863 2.47237 11.5974C2.52147 11.7086 2.60466 11.8048 2.71214 11.8745C2.81688 11.9423 2.94043 11.9824 3.06891 11.9901C3.19739 11.9979 3.32572 11.9731 3.43948 11.9184L6.98614 10.2431L10.519 11.9247C10.6162 11.9744 10.726 12.0003 10.8376 12C10.9843 12.0005 11.1274 11.9587 11.2463 11.8808C11.3538 11.811 11.437 11.7149 11.4861 11.6037C11.5352 11.4925 11.5481 11.3709 11.5234 11.2533L10.8307 7.68921L13.6916 5.17929C13.7916 5.10254 13.8655 5.00165 13.9047 4.88836C13.944 4.77506 13.9469 4.65401 13.9132 4.53926ZM9.65307 7.04918C9.57183 7.12036 9.51105 7.20846 9.47604 7.3058C9.44102 7.40314 9.43283 7.50677 9.45218 7.60764L9.95093 10.2368L7.34635 8.98182C7.24613 8.93348 7.13432 8.90819 7.02078 8.90819C6.90723 8.90819 6.79543 8.93348 6.69521 8.98182L4.09062 10.2368L4.58937 7.60764C4.60873 7.50677 4.60054 7.40314 4.56552 7.3058C4.53051 7.20846 4.46973 7.12036 4.38849 7.04918L2.31036 5.16674L5.22667 4.78398C5.33888 4.76984 5.44556 4.73098 5.53734 4.67081C5.62913 4.61064 5.70322 4.531 5.75312 4.43886L6.98614 2.04816L8.28843 4.44514C8.33834 4.53728 8.41243 4.61692 8.50421 4.67709C8.596 4.73726 8.70267 4.77611 8.81489 4.79025L11.7312 5.17301L9.65307 7.04918Z" fill="#108815" fill-opacity="0.2"/>
</svg>
