<svg width="25" height="25" viewBox="0 0 25 25" fill="none" xmlns="http://www.w3.org/2000/svg">
<path d="M14.7015 12.4987L24.5381 2.67661C24.8322 2.38257 24.9973 1.98376 24.9973 1.56792C24.9973 1.15208 24.8322 0.753277 24.5381 0.459234C24.2441 0.165192 23.8454 0 23.4296 0C23.0138 0 22.615 0.165192 22.321 0.459234L12.5 10.2969L2.67899 0.459234C2.38498 0.165192 1.98622 3.69201e-07 1.57042 3.72299e-07C1.15463 3.75397e-07 0.755862 0.165192 0.46185 0.459234C0.167839 0.753277 0.00266501 1.15208 0.002665 1.56792C0.002665 1.98376 0.167839 2.38257 0.46185 2.67661L10.2985 12.4987L0.46185 22.3207C0.315506 22.4659 0.199349 22.6386 0.12008 22.8289C0.0408118 23.0192 0 23.2233 0 23.4294C0 23.6356 0.0408118 23.8397 0.12008 24.0299C0.199349 24.2202 0.315506 24.3929 0.46185 24.5381C0.607 24.6845 0.779688 24.8006 0.969956 24.8799C1.16022 24.9592 1.3643 25 1.57042 25C1.77654 25 1.98062 24.9592 2.17089 24.8799C2.36115 24.8006 2.53384 24.6845 2.67899 24.5381L12.5 14.7004L22.321 24.5381C22.4662 24.6845 22.6388 24.8006 22.8291 24.8799C23.0194 24.9592 23.2235 25 23.4296 25C23.6357 25 23.8398 24.9592 24.03 24.8799C24.2203 24.8006 24.393 24.6845 24.5381 24.5381C24.6845 24.3929 24.8007 24.2202 24.8799 24.0299C24.9592 23.8397 25 23.6356 25 23.4294C25 23.2233 24.9592 23.0192 24.8799 22.8289C24.8007 22.6386 24.6845 22.4659 24.5381 22.3207L14.7015 12.4987Z" fill="#97999B"/>
</svg>
