<svg width="53" height="24" viewBox="0 0 53 24" fill="none" xmlns="http://www.w3.org/2000/svg">
<path d="M9.68215 3.08362C9.05932 3.89008 8.06711 4.52912 7.07655 4.43552C6.94569 3.34824 7.43932 2.18356 8.00914 1.4617C8.6303 0.639046 9.71694 0.0486035 10.5982 0C10.7025 1.13588 10.295 2.25196 9.68381 3.08362H9.68215ZM10.5882 4.64973C9.14877 4.55432 7.91306 5.548 7.2306 5.548C6.53324 5.548 5.48802 4.69653 4.35004 4.72534C2.87414 4.74514 1.49431 5.6614 0.743941 7.13571C-0.818092 10.0681 0.338111 14.41 1.83886 16.8006C2.57266 17.9815 3.45058 19.2758 4.60844 19.2398C5.70336 19.1912 6.14397 18.4531 7.46416 18.4531C8.80092 18.4531 9.18025 19.2398 10.3464 19.211C11.544 19.1912 12.3027 18.0301 13.0365 16.8492C13.873 15.5081 14.2175 14.194 14.2357 14.1292C14.2175 14.1004 11.915 13.1355 11.8985 10.2283C11.8803 7.78915 13.709 6.62807 13.7868 6.56147C12.7598 4.87475 11.1382 4.69654 10.5866 4.65153L10.5882 4.64973ZM18.897 1.3483V19.0886H21.4065V13.0239H24.8768C28.0423 13.0239 30.2685 10.6334 30.2685 7.18251C30.2685 3.72447 28.087 1.3501 24.9629 1.3501L18.897 1.3483ZM21.4065 3.67406H24.297C26.4703 3.67406 27.7143 4.94855 27.7143 7.18971C27.7143 9.43087 26.4703 10.7162 24.2805 10.7162H21.4065V3.67406ZM34.8387 19.22C36.4173 19.22 37.8749 18.3487 38.5408 16.959H38.5938V19.0886H40.9129V10.2553C40.9129 7.70635 39.051 6.04843 36.1771 6.04843C33.5201 6.04843 31.5523 7.72615 31.4844 10.0231H33.7355C33.926 8.92684 34.8403 8.21399 36.1092 8.21399C37.6447 8.21399 38.4994 9.00064 38.4994 10.4461V11.42L35.377 11.627C32.46 11.8232 30.8897 13.1265 30.8897 15.4055C30.8897 17.7025 32.513 19.2218 34.8403 19.2218L34.8387 19.22ZM35.5211 17.1192C34.1827 17.1192 33.3296 16.4154 33.3296 15.3389C33.3296 14.2228 34.1496 13.5658 35.71 13.4614L38.4978 13.2741V14.2768C38.4978 15.9383 37.2124 17.1192 35.5112 17.1192H35.5211ZM44.0104 23.9165C46.4504 23.9165 47.6 22.885 48.6005 19.7816L53 6.22484H50.4557L47.5056 16.6962H47.4525L44.5024 6.22484H41.8802L46.1257 19.1354L45.9005 19.922C45.5112 21.2451 44.8917 21.7581 43.7868 21.7581C43.588 21.7581 43.2087 21.7311 43.053 21.7131V23.8427C43.1988 23.8877 43.8216 23.9075 44.0022 23.9075L44.0104 23.9165Z" fill="black"/>
</svg>
