<svg width="15" height="26" viewBox="0 0 15 26" fill="none" xmlns="http://www.w3.org/2000/svg">
<path d="M0.627735 14.4339L11.6641 25.4246C11.8454 25.6069 12.0611 25.7516 12.2987 25.8504C12.5363 25.9492 12.7912 26 13.0486 26C13.306 26 13.5608 25.9492 13.7984 25.8504C14.0361 25.7516 14.2517 25.6069 14.433 25.4246C14.7962 25.0601 15 24.5671 15 24.0532C15 23.5393 14.7962 23.0462 14.433 22.6818L4.78101 12.9555L14.433 3.3264C14.7962 2.96193 15 2.4689 15 1.95499C15 1.44108 14.7962 0.948046 14.433 0.583576C14.2524 0.399771 14.037 0.253546 13.7994 0.15337C13.5618 0.0531961 13.3065 0.00106636 13.0486 -1.73675e-06C12.7906 0.0010664 12.5354 0.0531962 12.2977 0.15337C12.0601 0.253546 11.8447 0.399771 11.6641 0.583576L0.627735 11.5743C0.429811 11.7565 0.271853 11.9776 0.163815 12.2236C0.0557764 12.4697 7.47724e-07 12.7354 7.7121e-07 13.0041C7.94695e-07 13.2727 0.0557765 13.5385 0.163815 13.7845C0.271853 14.0306 0.429811 14.2517 0.627735 14.4339Z" fill="#97999B"/>
</svg>
