<svg width="28" height="16" viewBox="0 0 28 16" fill="none" xmlns="http://www.w3.org/2000/svg">
<path d="M15.5441 15.3304L27.3803 3.55826C27.5767 3.3649 27.7325 3.13487 27.8389 2.88141C27.9452 2.62796 28 2.35611 28 2.08154C28 1.80697 27.9452 1.53511 27.8389 1.28166C27.7325 1.02821 27.5767 0.798168 27.3803 0.604816C26.9878 0.217435 26.4569 -6.74523e-08 25.9034 -9.16441e-08C25.35 -1.15836e-07 24.819 0.217434 24.4265 0.604815L13.952 10.9003L3.58228 0.604815C3.18977 0.217434 2.65881 -1.1077e-06 2.10537 -1.13189e-06C1.55193 -1.15608e-06 1.02097 0.217433 0.628468 0.604814C0.430525 0.797442 0.27305 1.02716 0.165171 1.28064C0.0572891 1.53413 0.00115005 1.80635 -9.09868e-08 2.08153C0.00115003 2.35672 0.057289 2.62894 0.165171 2.88243C0.27305 3.13591 0.430525 3.36563 0.628467 3.55825L12.4646 15.3304C12.6608 15.5415 12.8989 15.71 13.1639 15.8253C13.4289 15.9405 13.7151 16 14.0044 16C14.2937 16 14.5799 15.9405 14.8449 15.8253C15.1099 15.71 15.348 15.5415 15.5441 15.3304Z" fill="black"/>
</svg>
