<svg width="34" height="24" viewBox="0 0 34 24" fill="none" xmlns="http://www.w3.org/2000/svg">
<path d="M30.694 1.21695H22.082V3.89567H30.728L30.694 1.21695ZM28.8765 19.645C28.2232 20.1292 27.4517 20.3748 26.6683 20.348C26.1498 20.4084 25.6256 20.3485 25.1288 20.172C24.6319 19.9955 24.1729 19.7061 23.7806 19.3221C23.0554 18.4023 22.6778 17.2035 22.7275 15.9784H33.9724C34.0534 14.7028 33.956 13.4208 33.6836 12.1788C33.4201 10.9972 32.959 9.882 32.3247 8.89216C31.6862 7.932 30.8616 7.14608 29.9127 6.59339C28.8569 6.01118 27.6924 5.71815 26.5154 5.73848C25.4085 5.72941 24.3111 5.96842 23.288 6.44141C22.3513 6.8831 21.5024 7.52891 20.7911 8.34121C20.0817 9.16975 19.5324 10.1527 19.1774 11.2289C18.7964 12.3907 18.6065 13.6201 18.6168 14.8575C18.5994 16.1126 18.7835 17.3609 19.1604 18.5432C19.4806 19.6138 19.9888 20.602 20.6552 21.4499C21.3447 22.2823 22.1921 22.9314 23.1352 23.3497C24.1868 23.7978 25.3053 24.017 26.4305 23.9956C28.0092 24.0506 29.5679 23.5884 30.9148 22.6657C32.2753 21.5845 33.2547 20.0051 33.6836 18.2012H29.9296C29.7287 18.798 29.3589 19.305 28.8765 19.645ZM23.0502 11.8179C23.1824 11.3442 23.4019 10.9068 23.6945 10.5337C23.987 10.1607 24.3462 9.86039 24.7489 9.65208C25.2822 9.38361 25.8629 9.2537 26.4475 9.27212C26.8698 9.23178 27.2949 9.29408 27.6936 9.45477C28.0924 9.61545 28.4553 9.8707 28.7576 10.203C29.3348 10.9932 29.7051 11.9466 29.8277 12.9577H22.7785C22.806 12.5717 22.8686 12.1897 22.9653 11.8179H23.0502ZM14.0646 10.9059C14.9291 10.5033 15.6803 9.84691 16.2388 9.00614C16.7521 8.11324 17.0072 7.06517 16.9692 6.00445C17.0025 5.03714 16.8338 4.07446 16.4766 3.19274C16.1765 2.42886 15.6947 1.77174 15.0837 1.29294C14.436 0.795139 13.7004 0.458284 12.9265 0.305041C12.0106 0.0901981 11.0765 -0.011733 10.1407 0.00107217H0V23.9006H10.3616C11.3072 23.9014 12.249 23.7673 13.1643 23.5016C14.0318 23.2506 14.8538 22.8328 15.5933 22.2668C16.3097 21.7115 16.893 20.9677 17.2919 20.101C17.7334 19.1317 17.9496 18.0537 17.9204 16.9663C17.9526 15.6189 17.6147 14.2928 16.9522 13.1667C16.2398 12.0343 15.1831 11.2307 13.9796 10.9059H14.0646ZM4.70517 4.08565H9.10459C9.50877 4.08509 9.91225 4.12323 10.3106 4.19964C10.6774 4.26044 11.0297 4.40253 11.3468 4.6176C11.6531 4.8114 11.9013 5.10225 12.0602 5.45351C12.2569 5.87473 12.3507 6.3466 12.332 6.82137C12.3636 7.23028 12.3077 7.64174 12.1689 8.02167C12.03 8.4016 11.8123 8.73908 11.5336 9.00614C10.9257 9.47355 10.1983 9.70696 9.4613 9.67107H4.70517V4.08565ZM12.9265 18.2202C12.752 18.6074 12.4881 18.9353 12.1621 19.1701C11.8229 19.4061 11.4491 19.5733 11.058 19.664C10.6233 19.7729 10.1785 19.8239 9.73308 19.816H4.63723V13.2617H9.73308C10.6076 13.2189 11.4711 13.492 12.1961 14.0406C12.5236 14.3693 12.7773 14.7797 12.9366 15.2385C13.096 15.6973 13.1565 16.1916 13.1133 16.6814C13.1593 17.2036 13.0953 17.7306 12.9265 18.2202Z" fill="black"/>
</svg>
