<svg width="34" height="25" viewBox="0 0 34 25" fill="none" xmlns="http://www.w3.org/2000/svg">
<path d="M8.5 16.6667H13.6C14.0509 16.6667 14.4833 16.4911 14.8021 16.1785C15.1209 15.8659 15.3 15.442 15.3 15C15.3 14.558 15.1209 14.134 14.8021 13.8215C14.4833 13.5089 14.0509 13.3333 13.6 13.3333H8.5C8.04913 13.3333 7.61673 13.5089 7.29792 13.8215C6.97911 14.134 6.8 14.558 6.8 15C6.8 15.442 6.97911 15.8659 7.29792 16.1785C7.61673 16.4911 8.04913 16.6667 8.5 16.6667ZM28.9 0H5.1C3.7474 0 2.45019 0.526784 1.49376 1.46447C0.53732 2.40215 0 3.67392 0 5V20C0 21.3261 0.53732 22.5979 1.49376 23.5355C2.45019 24.4732 3.7474 25 5.1 25H28.9C30.2526 25 31.5498 24.4732 32.5062 23.5355C33.4627 22.5979 34 21.3261 34 20V5C34 3.67392 33.4627 2.40215 32.5062 1.46447C31.5498 0.526784 30.2526 0 28.9 0ZM30.6 20C30.6 20.442 30.4209 20.866 30.1021 21.1785C29.7833 21.4911 29.3509 21.6667 28.9 21.6667H5.1C4.64913 21.6667 4.21673 21.4911 3.89792 21.1785C3.57911 20.866 3.4 20.442 3.4 20V10H30.6V20ZM30.6 6.66667H3.4V5C3.4 4.55797 3.57911 4.13405 3.89792 3.82149C4.21673 3.50893 4.64913 3.33333 5.1 3.33333H28.9C29.3509 3.33333 29.7833 3.50893 30.1021 3.82149C30.4209 4.13405 30.6 4.55797 30.6 5V6.66667Z" fill="black"/>
</svg>
