<svg width="26" height="33" viewBox="0 0 26 33" fill="none" xmlns="http://www.w3.org/2000/svg">
<path d="M8.125 13.2H9.75C10.181 13.2 10.5943 13.0262 10.899 12.7167C11.2038 12.4073 11.375 11.9876 11.375 11.55C11.375 11.1124 11.2038 10.6927 10.899 10.3833C10.5943 10.0738 10.181 9.9 9.75 9.9H8.125C7.69402 9.9 7.2807 10.0738 6.97595 10.3833C6.67121 10.6927 6.5 11.1124 6.5 11.55C6.5 11.9876 6.67121 12.4073 6.97595 12.7167C7.2807 13.0262 7.69402 13.2 8.125 13.2ZM8.125 16.5C7.69402 16.5 7.2807 16.6738 6.97595 16.9833C6.67121 17.2927 6.5 17.7124 6.5 18.15C6.5 18.5876 6.67121 19.0073 6.97595 19.3167C7.2807 19.6262 7.69402 19.8 8.125 19.8H17.875C18.306 19.8 18.7193 19.6262 19.024 19.3167C19.3288 19.0073 19.5 18.5876 19.5 18.15C19.5 17.7124 19.3288 17.2927 19.024 16.9833C18.7193 16.6738 18.306 16.5 17.875 16.5H8.125ZM26 11.451C25.9831 11.2994 25.9504 11.1501 25.9025 11.0055V10.857C25.8244 10.6873 25.7201 10.5314 25.5938 10.395L15.8438 0.495C15.7094 0.366657 15.5558 0.260834 15.3888 0.1815C15.3402 0.174504 15.291 0.174504 15.2425 0.1815C15.0774 0.0853731 14.8951 0.0236679 14.7063 0H4.875C3.58207 0 2.34209 0.521517 1.42785 1.44982C0.513615 2.37813 0 3.63718 0 4.95V28.05C0 29.3628 0.513615 30.6219 1.42785 31.5502C2.34209 32.4785 3.58207 33 4.875 33H21.125C22.4179 33 23.6579 32.4785 24.5721 31.5502C25.4864 30.6219 26 29.3628 26 28.05V11.55V11.451ZM16.25 5.6265L20.4587 9.9H17.875C17.444 9.9 17.0307 9.72616 16.726 9.41673C16.4212 9.10729 16.25 8.68761 16.25 8.25V5.6265ZM22.75 28.05C22.75 28.4876 22.5788 28.9073 22.274 29.2167C21.9693 29.5262 21.556 29.7 21.125 29.7H4.875C4.44402 29.7 4.0307 29.5262 3.72595 29.2167C3.42121 28.9073 3.25 28.4876 3.25 28.05V4.95C3.25 4.51239 3.42121 4.09271 3.72595 3.78327C4.0307 3.47384 4.44402 3.3 4.875 3.3H13V8.25C13 9.56282 13.5136 10.8219 14.4279 11.7502C15.3421 12.6785 16.5821 13.2 17.875 13.2H22.75V28.05ZM17.875 23.1H8.125C7.69402 23.1 7.2807 23.2738 6.97595 23.5833C6.67121 23.8927 6.5 24.3124 6.5 24.75C6.5 25.1876 6.67121 25.6073 6.97595 25.9167C7.2807 26.2262 7.69402 26.4 8.125 26.4H17.875C18.306 26.4 18.7193 26.2262 19.024 25.9167C19.3288 25.6073 19.5 25.1876 19.5 24.75C19.5 24.3124 19.3288 23.8927 19.024 23.5833C18.7193 23.2738 18.306 23.1 17.875 23.1Z" fill="black"/>
</svg>
