<svg width="13" height="13" viewBox="0 0 13 13" fill="none" xmlns="http://www.w3.org/2000/svg">
<path d="M12.4468 0.5628C12.1985 0.309744 11.8835 0.132124 11.5384 0.0504814C11.1933 -0.0311616 10.8322 -0.0134935 10.4967 0.101443L1.29868 3.175C0.927712 3.29638 0.603586 3.52988 0.371045 3.84327C0.138503 4.15666 0.0090147 4.53449 0.000453661 4.92458C-0.00810737 5.31468 0.104681 5.69782 0.32325 6.0211C0.541819 6.34438 0.855389 6.59187 1.22067 6.7294L4.62687 8.029C4.70443 8.05865 4.77505 8.10395 4.83433 8.16209C4.8936 8.22022 4.94026 8.28994 4.97139 8.3669L6.27146 11.7783C6.4038 12.1383 6.64395 12.4488 6.95918 12.6674C7.27442 12.886 7.64941 13.0021 8.03307 13H8.07857C8.46925 12.9929 8.84792 12.8637 9.1615 12.6307C9.47507 12.3976 9.70784 12.0723 9.82717 11.7004L12.9018 2.49271C13.0137 2.16062 13.0303 1.80388 12.9499 1.46283C12.8695 1.12178 12.6952 0.810018 12.4468 0.5628ZM11.6993 2.08333L8.5921 11.2975C8.55602 11.4141 8.48355 11.5161 8.38531 11.5886C8.28706 11.6611 8.16818 11.7003 8.04607 11.7004C7.92467 11.7024 7.80555 11.6674 7.70453 11.6C7.60351 11.5327 7.52539 11.4363 7.48053 11.3235L6.18046 7.91204C6.08621 7.66416 5.94085 7.43886 5.75383 7.25079C5.56681 7.06272 5.3423 6.91607 5.0949 6.82037L1.6822 5.52077C1.56707 5.4786 1.46811 5.40134 1.39929 5.2999C1.33048 5.19846 1.29528 5.07797 1.29868 4.95545C1.29878 4.83338 1.33795 4.71455 1.41047 4.61633C1.48299 4.51812 1.58504 4.44568 1.7017 4.40962L10.9192 1.33606C11.0251 1.29295 11.1411 1.2814 11.2534 1.30281C11.3656 1.32422 11.4693 1.37768 11.5518 1.45672C11.6343 1.53576 11.6921 1.637 11.7183 1.7482C11.7445 1.85941 11.7379 1.97581 11.6993 2.08333Z" fill="#97999B"/>
</svg>
