<svg width="33" height="24" viewBox="0 0 33 24" fill="none" xmlns="http://www.w3.org/2000/svg">
<path opacity="0.5" d="M21.7028 23.9165C19.5272 23.9169 17.4004 23.2159 15.5913 21.9022C13.7821 20.5885 12.372 18.7211 11.5391 16.5361C10.7063 14.3512 10.4881 11.9468 10.9122 9.62706C11.3363 7.30732 12.3837 5.17639 13.9218 3.50375C15.46 1.83111 17.4199 0.691883 19.5536 0.230127C21.6873 -0.23163 23.8991 0.00482559 25.9092 0.909592C27.9193 1.81436 29.6375 3.3468 30.8464 5.31313C32.0554 7.27946 32.7008 9.59136 32.7012 11.9565V11.9583C32.6981 15.1285 31.5385 18.1679 29.4766 20.4097C27.4147 22.6516 24.619 23.9127 21.7028 23.9165Z" fill="black"/>
<path d="M11 23.9165C8.82441 23.9165 6.69767 23.2152 4.88873 21.9012C3.07979 20.5872 1.66989 18.7196 0.83733 16.5345C0.00476614 14.3494 -0.21307 11.945 0.211367 9.62532C0.635804 7.30564 1.68345 5.17489 3.22183 3.5025C4.76021 1.8301 6.72022 0.691191 8.85401 0.22978C10.9878 -0.231632 13.1995 0.00518165 15.2095 0.910273C17.2195 1.81536 18.9375 3.34808 20.1462 5.31461C21.3549 7.28113 22 9.59314 22 11.9583C21.997 15.1288 20.8371 18.1685 18.7748 20.4104C16.7126 22.6523 13.9165 23.9132 11 23.9165Z" fill="black"/>
</svg>
