<svg width="29" height="35" viewBox="0 0 29 35" fill="none" xmlns="http://www.w3.org/2000/svg">
<path d="M24.1667 0H11.2778C9.9959 0 8.76652 0.502839 7.8601 1.3979C6.95367 2.29296 6.44444 3.50692 6.44444 4.77273H4.83333C3.55145 4.77273 2.32208 5.27557 1.41565 6.17063C0.509225 7.06569 0 8.27965 0 9.54545V14.3182C0 15.584 0.509225 16.798 1.41565 17.693C2.32208 18.5881 3.55145 19.0909 4.83333 19.0909H14.5C14.9273 19.0909 15.3371 19.2585 15.6392 19.5569C15.9414 19.8552 16.1111 20.2599 16.1111 20.6818V22.2727C15.2565 22.2727 14.4369 22.608 13.8327 23.2047C13.2284 23.8014 12.8889 24.6107 12.8889 25.4545V31.8182C12.8889 32.6621 13.2284 33.4714 13.8327 34.0681C14.4369 34.6648 15.2565 35 16.1111 35H19.3333C20.1879 35 21.0075 34.6648 21.6118 34.0681C22.2161 33.4714 22.5556 32.6621 22.5556 31.8182V25.4545C22.5556 24.6107 22.2161 23.8014 21.6118 23.2047C21.0075 22.608 20.1879 22.2727 19.3333 22.2727V20.6818C19.3333 19.416 18.8241 18.202 17.9177 17.307C17.0113 16.4119 15.7819 15.9091 14.5 15.9091H4.83333C4.40604 15.9091 3.99625 15.7415 3.69411 15.4431C3.39196 15.1448 3.22222 14.7401 3.22222 14.3182V9.54545C3.22222 9.12352 3.39196 8.71887 3.69411 8.42051C3.99625 8.12216 4.40604 7.95455 4.83333 7.95455H6.44444C6.44444 9.22035 6.95367 10.4343 7.8601 11.3294C8.76652 12.2244 9.9959 12.7273 11.2778 12.7273H24.1667C25.4485 12.7273 26.6779 12.2244 27.5844 11.3294C28.4908 10.4343 29 9.22035 29 7.95455V4.77273C29 3.50692 28.4908 2.29296 27.5844 1.3979C26.6779 0.502839 25.4485 0 24.1667 0ZM19.3333 25.4545V31.8182H16.1111V25.4545H19.3333ZM25.7778 7.95455C25.7778 8.37648 25.608 8.78113 25.3059 9.07949C25.0038 9.37784 24.594 9.54545 24.1667 9.54545H11.2778C10.8505 9.54545 10.4407 9.37784 10.1386 9.07949C9.83641 8.78113 9.66667 8.37648 9.66667 7.95455V4.77273C9.66667 4.35079 9.83641 3.94614 10.1386 3.64778C10.4407 3.34943 10.8505 3.18182 11.2778 3.18182H24.1667C24.594 3.18182 25.0038 3.34943 25.3059 3.64778C25.608 3.94614 25.7778 4.35079 25.7778 4.77273V7.95455Z" fill="black"/>
</svg>
