<svg width="28" height="28" viewBox="0 0 28 28" fill="none" xmlns="http://www.w3.org/2000/svg">
<path d="M10.6587 3.15166e-08C12.6978 -4.38347e-05 14.694 0.584532 16.4106 1.68437C18.1273 2.78421 19.4922 4.35314 20.3435 6.20503C21.1948 8.05691 21.4968 10.114 21.2136 12.1323C20.9304 14.1505 20.0738 16.0452 18.7456 17.5916L28 26.8413L26.8407 28L17.5848 18.7486C16.2794 19.8644 14.7235 20.6483 13.0497 21.0335C11.3759 21.4188 9.63369 21.394 7.97152 20.9613C6.30936 20.5286 4.77645 19.7007 3.50336 18.5483C2.23027 17.3958 1.25471 15.9529 0.659765 14.3424C0.0648246 12.7319 -0.13187 11.0016 0.0864338 9.29871C0.304737 7.59586 0.931571 5.97098 1.91355 4.56244C2.89553 3.1539 4.20355 2.00345 5.72623 1.20906C7.24891 0.414662 8.94112 -0.000132014 10.6587 3.15166e-08ZM10.6587 1.63886C8.26696 1.63886 5.97313 2.58853 4.28188 4.27893C2.59064 5.96934 1.6405 8.26202 1.6405 10.6526C1.6405 13.0432 2.59064 15.3359 4.28188 17.0263C5.97313 18.7167 8.26696 19.6664 10.6587 19.6664C13.0505 19.6664 15.3444 18.7167 17.0356 17.0263C18.7269 15.3359 19.677 13.0432 19.677 10.6526C19.677 8.26202 18.7269 5.96934 17.0356 4.27893C15.3444 2.58853 13.0505 1.63886 10.6587 1.63886Z" fill="black"/>
</svg>
