<svg width="22" height="21" viewBox="0 0 22 21" fill="none" xmlns="http://www.w3.org/2000/svg">
<path d="M21.2644 0.473557C20.9797 0.236714 20.6361 0.0815043 20.2702 0.0244501C19.9043 -0.0326042 19.5297 0.0106324 19.1864 0.149557L1.26542 7.38456C0.882269 7.54225 0.556127 7.81272 0.330259 8.16007C0.104392 8.50743 -0.0105241 8.91525 0.00075781 9.32942C0.0120397 9.7436 0.148986 10.1446 0.393428 10.4791C0.63787 10.8136 0.978252 11.066 1.36942 11.2026L4.99442 12.4636L7.01442 19.1456C7.0421 19.2347 7.08216 19.3195 7.13342 19.3976C7.14142 19.4096 7.15242 19.4176 7.16042 19.4306C7.21935 19.5126 7.29051 19.5851 7.37142 19.6456C7.394 19.6632 7.41736 19.6799 7.44142 19.6956C7.53614 19.7584 7.64101 19.8044 7.75142 19.8316L7.76442 19.8326L7.77042 19.8356C7.83725 19.849 7.90525 19.8557 7.97342 19.8556L7.99142 19.8526C8.09383 19.8509 8.19536 19.8333 8.29242 19.8006C8.31542 19.7926 8.33442 19.7806 8.35642 19.7706C8.42901 19.7408 8.49783 19.7025 8.56142 19.6566C8.61207 19.6135 8.66273 19.5705 8.71342 19.5276L11.4154 16.5446L15.4454 19.6666C15.8001 19.9428 16.2368 20.0931 16.6864 20.0936C17.1577 20.093 17.6144 19.9304 17.98 19.6331C18.3456 19.3358 18.5978 18.9218 18.6944 18.4606L21.9574 2.44356C22.0312 2.08321 22.0057 1.70959 21.8837 1.36261C21.7616 1.01563 21.5476 0.708333 21.2644 0.473557ZM8.36942 12.7816C8.23092 12.9198 8.1363 13.0958 8.09741 13.2876L7.78742 14.7916L7.00342 12.1986L11.0684 10.0816L8.36942 12.7816ZM16.6714 18.0856L11.9084 14.3956C11.7091 14.2418 11.4592 14.1687 11.2084 14.191C10.9577 14.2132 10.7245 14.3291 10.5554 14.5156L9.68941 15.4706L9.99542 13.9836L17.0784 6.90056C17.2465 6.73147 17.3486 6.50791 17.3664 6.27018C17.3841 6.03244 17.3164 5.79618 17.1754 5.60398C17.0343 5.41179 16.8293 5.2763 16.5971 5.22195C16.365 5.1676 16.1211 5.19796 15.9094 5.30756L5.74442 10.5996L2.01942 9.23656L19.9984 2.04556L16.6714 18.0856Z" fill="white"/>
</svg>
