<svg width="58" height="20" viewBox="0 0 58 20" fill="none" xmlns="http://www.w3.org/2000/svg">
<path d="M42.1626 0.801526C40.8147 0.260818 39.3899 -0.0105128 37.9553 0.000311533C33.316 0.000311533 30.0395 2.57314 30.0163 6.2664C29.9873 8.97968 32.3446 10.5087 34.1279 11.4153C35.9575 12.3473 36.5693 12.9347 36.5635 13.7678C36.5519 15.0351 35.1021 15.6097 33.7538 15.6097C31.901 15.6097 30.8891 15.3256 29.332 14.6137L28.755 14.3169L28.0968 18.5687C29.2247 19.0859 31.2573 19.5296 33.3566 19.5679C38.2888 19.5679 41.5131 17.011 41.5508 13.0815C41.5914 10.9141 40.3156 9.27655 37.6306 7.9231C35.9981 7.04527 34.9862 6.45792 34.9862 5.56733C34.9862 4.77888 35.8531 3.93617 37.6653 3.93617C38.8714 3.90404 40.0701 4.15316 41.1825 4.66716L41.6175 4.88103L42.2757 0.772798L42.1626 0.801526ZM54.2016 0.345057H50.5771C49.4492 0.345057 48.5996 0.686612 48.1067 1.91876L41.1361 19.3029H46.0683L47.0541 16.4524L53.0736 16.4588C53.2157 17.1259 53.6507 19.3029 53.6507 19.3029H58L54.2016 0.345057ZM23.3444 0.185452H28.0446L25.1044 19.1529H20.41L23.3444 0.179068V0.185452ZM11.4127 10.6396L11.8998 13.2731L16.4927 0.345057H21.4713L14.0745 19.2774H9.10753L5.04814 3.24667C4.9824 2.98234 4.82799 2.75532 4.61611 2.61145C3.15299 1.77939 1.60272 1.14796 0 0.731299L0.0637903 0.332287H7.62876C8.6552 0.376976 9.48158 0.7313 9.75704 1.93791L11.4098 10.6491V10.6396H11.4127ZM48.4024 12.574L50.2756 7.26872C50.2524 7.32617 50.6612 6.17383 50.899 5.46199L51.2208 7.09954L52.3082 12.5708H48.3995V12.574H48.4024Z" fill="black"/>
</svg>
