<svg width="32" height="24" viewBox="0 0 32 24" fill="none" xmlns="http://www.w3.org/2000/svg">
<path d="M31.9926 8.45835C32.0645 6.2376 31.6095 4.03347 30.6698 2.05061C30.0323 1.23699 29.1475 0.68793 28.1696 0.499095C24.1249 0.107378 20.0635 -0.0531743 16.0027 0.0181268C11.9568 -0.0564105 7.90995 0.0989608 3.87947 0.483581C3.08262 0.638292 2.34519 1.03723 1.75717 1.6317C0.448904 2.91945 0.303541 5.1226 0.158178 6.98442C-0.052726 10.3319 -0.052726 13.6907 0.158178 17.0382C0.200232 18.0861 0.346414 19.1263 0.594266 20.1412C0.769538 20.9249 1.12415 21.6498 1.62634 22.2513C2.21836 22.8773 2.97296 23.2989 3.79225 23.4615C6.92615 23.8744 10.0839 24.0455 13.2408 23.9735C18.3285 24.0511 22.7912 23.9735 28.0678 23.5391C28.9072 23.3865 29.6831 22.9643 30.2919 22.3289C30.6988 21.8943 31.0028 21.3624 31.1786 20.7774C31.6985 19.0748 31.9538 17.2928 31.9345 15.5022C31.9926 14.6334 31.9926 9.38926 31.9926 8.45835ZM12.7175 16.4331V6.82927L21.323 11.6545C18.91 13.0819 15.7265 14.6954 12.7175 16.4331Z" fill="black"/>
</svg>
